# xmcd
#
# Track frame offsets:
#	150
#	16437
#	41402
#	60942
#	77812
#	93680
#	111585
#	135605
#	154195
#	178865
#
# Disc length: 2567 seconds
#
# Revision: 0
# Processed by: cddbd v1.4PL0 Copyright (c) Steve Scherf et al.
# Submitted via: dBpowerAMP V4.0
#
DISCID=820a050a
DTITLE=LeBeau - Peterson Band - Hurtin' Man
DYEAR=1999
DGENRE=
TTITLE0=Hello L'il Girl
TTITLE1=Hurtin' Man
TTITLE2=Walkin' the Dog
TTITLE3=Don't Mean Diddly
TTITLE4=I Wish You Could See Me Now
TTITLE5=Caledonia
TTITLE6=These Grapes of Wrath
TTITLE7=Must be the Devil
TTITLE8=I Will Not Be Denied
TTITLE9=It'll Be Me
EXTD=
EXTT0=
EXTT1=
EXTT2=
EXTT3=
EXTT4=
EXTT5=
EXTT6=
EXTT7=
EXTT8=
EXTT9=
PLAYORDER=
